<?xml version="1.0" encoding="UTF-8" standalone="no"?>
<!-- Created with Inkscape (http://www.inkscape.org/) -->

<svg
   xmlns:dc="http://purl.org/dc/elements/1.1/"
   xmlns:cc="http://creativecommons.org/ns#"
   xmlns:rdf="http://www.w3.org/1999/02/22-rdf-syntax-ns#"
   xmlns:svg="http://www.w3.org/2000/svg"
   xmlns="http://www.w3.org/2000/svg"
   xmlns:xlink="http://www.w3.org/1999/xlink"
   xmlns:sodipodi="http://sodipodi.sourceforge.net/DTD/sodipodi-0.dtd"
   xmlns:inkscape="http://www.inkscape.org/namespaces/inkscape"
   width="164.12997"
   height="39.191292"
   id="svg6395"
   version="1.1"
   inkscape:version="0.48.4 r9939"
   sodipodi:docname="logo.svg">
  <defs
     id="defs6397" />
  <sodipodi:namedview
     id="base"
     pagecolor="#ffffff"
     bordercolor="#666666"
     borderopacity="1.0"
     inkscape:pageopacity="0.0"
     inkscape:pageshadow="2"
     inkscape:zoom="7.9195959"
     inkscape:cx="107.81726"
     inkscape:cy="1.7815744"
     inkscape:document-units="px"
     inkscape:current-layer="layer1"
     showgrid="true"
     inkscape:window-width="1916"
     inkscape:window-height="1041"
     inkscape:window-x="0"
     inkscape:window-y="37"
     inkscape:window-maximized="0"
     fit-margin-left="1"
     fit-margin-top="1"
     fit-margin-right="1"
     fit-margin-bottom="1">
    <inkscape:grid
       type="xygrid"
       id="grid6403"
       empspacing="5"
       visible="true"
       enabled="true"
       snapvisiblegridlinesonly="true"
       originx="-85.421719px"
       originy="-960.39341px" />
  </sodipodi:namedview>
  <metadata
     id="metadata6400">
    <rdf:RDF>
      <cc:Work
         rdf:about="">
        <dc:format>image/svg+xml</dc:format>
        <dc:type
           rdf:resource="http://purl.org/dc/dcmitype/StillImage" />
        <dc:title />
      </cc:Work>
    </rdf:RDF>
  </metadata>
  <g
     inkscape:label="Layer 1"
     inkscape:groupmode="layer"
     id="layer1"
     transform="translate(-85.421719,-52.777481)">
    <g
       id="g7044">
      <path
         d="m 89.71875,54.59375 a 2.7967903,2.7967903 0 0 0 -1.6875,4.75 L 101.0625,72.375 88.03125,85.40625 A 2.7967903,2.7967903 0 0 0 90,90.15625 l 15,0 a 2.7967903,2.7967903 0 0 0 1.96875,-0.8125 L 107.5625,88.75 A 2.7967903,2.7967903 0 0 0 110,90.15625 l 15,0 a 2.7967903,2.7967903 0 0 0 1.96875,-0.8125 L 132.5,83.8125 l 5.53125,5.53125 A 2.7967903,2.7967903 0 0 0 140,90.15625 l 15,0 a 2.7967903,2.7967903 0 0 0 1.96875,-4.75 l -5.25,-5.25 23.28125,0 A 2.7967903,2.7967903 0 0 0 177.4375,78.75 l 0.59375,0.59375 A 2.7967903,2.7967903 0 0 0 180,80.15625 l 1.46875,0 a 2.7967903,2.7967903 0 0 0 0.5625,3.1875 l 6,6 A 2.7967903,2.7967903 0 0 0 190,90.15625 l 15,0 a 2.7967903,2.7967903 0 0 0 1.96875,-4.75 l -6,-6 A 2.7967903,2.7967903 0 0 0 199,78.59375 l -1.46875,0 a 2.7967903,2.7967903 0 0 0 -0.5625,-3.1875 l -5.25,-5.25 13.28125,0 A 2.7967903,2.7967903 0 0 0 207.4375,68.75 l 10.59375,10.59375 A 2.7967903,2.7967903 0 0 0 220,80.15625 l 1.46875,0 a 2.7967903,2.7967903 0 0 0 0.5625,3.1875 l 6,6 A 2.7967903,2.7967903 0 0 0 230,90.15625 l 15,0 a 2.7967903,2.7967903 0 0 0 1.96875,-4.75 l -6,-6 A 2.7967903,2.7967903 0 0 0 239,78.59375 l -1.46875,0 a 2.7967903,2.7967903 0 0 0 -0.5625,-3.1875 l -20,-20 A 2.7967903,2.7967903 0 0 0 215,54.59375 l -15,0 A 2.7967903,2.7967903 0 0 0 197.5625,56 l -0.59375,-0.59375 A 2.7967903,2.7967903 0 0 0 195,54.59375 l -15,0 A 2.7967903,2.7967903 0 0 0 177.5625,56 l -0.59375,-0.59375 A 2.7967903,2.7967903 0 0 0 175,54.59375 l -15,0 A 2.7967903,2.7967903 0 0 0 157.5625,56 l -0.59375,-0.59375 A 2.7967903,2.7967903 0 0 0 155,54.59375 l -25,0 A 2.7967903,2.7967903 0 0 0 127.5625,56 l -0.59375,-0.59375 A 2.7967903,2.7967903 0 0 0 125,54.59375 l -15,0 A 2.7967903,2.7967903 0 0 0 107.5625,56 l -0.59375,-0.59375 A 2.7967903,2.7967903 0 0 0 105,54.59375 l -15,0 a 2.7967903,2.7967903 0 0 0 -0.28125,0 z"
         inkscape:href="#path6428"
         id="path7042"
         style="fill:#ffffff;fill-opacity:1;stroke:#000000;stroke-width:1.60000002;stroke-linecap:butt;stroke-linejoin:round;stroke-miterlimit:4;stroke-opacity:1;stroke-dasharray:none"
         xlink:href="#path6428"
         inkscape:original="M 90 57.375 L 105 72.375 L 90 87.375 L 105 87.375 L 120 72.375 L 105 57.375 L 90 57.375 z M 110 57.375 L 125 72.375 L 110 87.375 L 125 87.375 L 132.5 79.875 L 140 87.375 L 155 87.375 L 125 57.375 L 110 57.375 z M 130 57.375 L 138 65.375 L 163 65.375 L 155 57.375 L 130 57.375 z M 160 57.375 L 180 77.375 L 195 77.375 L 175 57.375 L 160 57.375 z M 180 57.375 L 190 67.375 L 205 67.375 L 195 57.375 L 180 57.375 z M 200 57.375 L 220 77.375 L 235 77.375 L 215 57.375 L 200 57.375 z M 142 69.375 L 150 77.375 L 175 77.375 L 167 69.375 L 142 69.375 z M 184 81.375 L 190 87.375 L 205 87.375 L 199 81.375 L 184 81.375 z M 224 81.375 L 230 87.375 L 245 87.375 L 239 81.375 L 224 81.375 z "
         inkscape:radius="2.7965107"
         sodipodi:type="inkscape:offset" />
      <path
         sodipodi:nodetypes="ccccccccccccccccccccccccccccccccccccccccccccccccccc"
         inkscape:connector-curvature="0"
         d="m 200,57.362183 15,0 20,20 -15,0 z m -20,0 15,0 10,10 -15,0 z m 0,20 -20,-20 15,0 20,20 z m 50,10 -6,-6 15,0 6,6 z m -40,0 -6,-6 15,0 6,6 z m -60,-30 8,8 25,0 -8,-8 z m 12,12 8,8 25,0 -8,-8 z M 110,57.375 l 15,15 -15,15 15,0 7.5,-7.5 7.5,7.5 15,0 -30,-30 z m -20,29.987183 15,-15 -15,-15 15,0 15,15 -15,15 z"
         style="fill:#dcab06;fill-opacity:1;stroke:#000000;stroke-width:1.60000002;stroke-linecap:butt;stroke-linejoin:round;stroke-miterlimit:4;stroke-opacity:1;stroke-dasharray:none"
         id="path6428" />
    </g>
  </g>
</svg>
